<?xml version="1.0" encoding="utf-8"?>
<!-- Generator: Adobe Illustrator 26.0.3, SVG Export Plug-In . SVG Version: 6.00 Build 0)  -->
<svg version="1.1" id="Layer_1" xmlns="http://www.w3.org/2000/svg" xmlns:xlink="http://www.w3.org/1999/xlink" x="0px" y="0px"
	 viewBox="0 0 539.44 539.43" style="enable-background:new 0 0 539.44 539.43;" xml:space="preserve">
<style type="text/css">
	.st0{display:none;fill:#FFFFFF;}
	.st1{fill:#FFFFFF;}
</style>
<g>
	<g>
		<path class="st0" d="M-163.28,594.73c0-216.67,0-433.33,0-650c288.67,0,577.33,0,866,0c0,216.67,0,433.33,0,650
			C414.05,594.73,125.39,594.73-163.28,594.73z M539.41,269.29c0.01,0,0.01,0,0.02,0c0-65.33,0.03-130.66-0.05-195.99
			c-0.01-5.14-0.27-10.38-1.24-15.41c-6.7-34.55-35.19-57.84-70.75-57.85C335.72-0.01,204.06,0,72.4,0.03
			C30.94,0.04,0.06,30.85,0.04,72.44C-0.03,204.27-0.01,336.1,0.12,467.93c0.01,6.1,0.72,12.37,2.23,18.27
			c8.31,32.41,36,53.2,70.46,53.2c131.16,0.02,262.33-0.04,393.49,0.04c42.09,0.02,73.07-30.55,73.1-72.65
			C539.45,400.95,539.41,335.12,539.41,269.29z"/>
		<path d="M539.41,269.29c0,65.83,0.03,131.66-0.01,197.49c-0.03,42.11-31.01,72.68-73.1,72.65
			c-131.16-0.08-262.33-0.02-393.49-0.04c-34.46-0.01-62.15-20.79-70.46-53.2c-1.51-5.9-2.23-12.17-2.23-18.27
			C-0.01,336.09-0.03,204.26,0.04,72.43C0.06,30.83,30.94,0.02,72.4,0.02c131.66-0.03,263.33-0.03,394.99,0.01
			c35.56,0.01,64.04,23.3,70.75,57.85c0.98,5.03,1.24,10.27,1.24,15.41c0.08,65.33,0.05,130.66,0.05,195.99
			C539.43,269.29,539.42,269.29,539.41,269.29z M362.67,295.65c6.65,3.48,12.46,8.13,17.11,13.98
			c18.71,23.58,19.66,49.43,7.12,75.56c-13.25,27.59-37.27,43.01-65.74,51.36c-27.31,8.01-55.31,8.01-83.17,3
			c-41.86-7.53-73.35-29.44-91.92-68.41c-11.02-23.13-16.74-47.71-18.77-73.12c-2.87-35.84-0.85-71.35,10.61-105.66
			c14.25-42.67,42.4-71.89,86.32-84.21c30.56-8.57,61.52-9.06,92.38-1.28c38.24,9.64,67.4,31.13,84.86,67.04
			c4.77,9.82,8.29,20.24,12.53,30.76c0.07,0,0.76,0.2,1.35,0.05c10.15-2.61,20.31-5.17,30.37-8.09c0.98-0.29,2.09-3.11,1.77-4.41
			c-1.26-4.99-2.92-9.89-4.72-14.72c-17.14-45.98-47.14-79.92-93.08-98.7c-22.15-9.06-45.47-12.67-69.23-13.62
			c-28.77-1.15-56.88,2.53-83.77,13.18c-42.19,16.71-70.42,47.43-87.81,88.75c-12.24,29.08-17.37,59.65-18.7,90.97
			c-1.66,39.15,2.43,77.53,16.73,114.32c17.89,46.03,48.74,79.46,96.03,96c35.66,12.47,72.34,14.42,109.43,8.01
			c39.87-6.89,73.25-25.22,97.24-58.38c20.33-28.11,27.25-59.48,18.12-93.31c-8.72-32.33-29.95-54.3-59.95-68.19
			c-2.76-1.28-4.07-2.66-4.26-5.8c-0.27-4.64-1.06-9.26-1.91-13.84c-3.72-20.23-10.96-38.78-26.31-53.23
			c-31.43-29.59-90.54-29.82-123.62-0.33c-5.59,4.99-10.31,10.95-15.75,16.81c10.82,7.39,20.53,14.02,30.32,20.71
			c1.15-1.24,2.03-2.01,2.7-2.94c18.52-25.52,60.92-23.13,77.58-10.38c11.7,8.95,16.94,21.07,19.21,35.7
			c-3.04-0.27-5.33-0.55-7.62-0.66c-11.81-0.55-23.62-1.56-35.42-1.48c-21.11,0.15-41.42,3.98-59.61,15.59
			c-36.95,23.57-42.3,73.17-10.8,103.1c14.48,13.75,32.56,19.68,52.17,21.31c37.24,3.09,76.25-14,90.98-58.02
			C358.35,314.29,360.19,305.15,362.67,295.65z"/>
		<path class="st1" d="M362.67,295.65c-2.48,9.5-4.31,18.63-7.25,27.4c-14.73,44.02-53.74,61.11-90.98,58.02
			c-19.61-1.63-37.69-7.55-52.17-21.31c-31.5-29.93-26.15-79.53,10.8-103.1c18.19-11.6,38.5-15.44,59.61-15.59
			c11.8-0.08,23.61,0.92,35.42,1.48c2.29,0.11,4.58,0.39,7.62,0.66c-2.27-14.62-7.52-26.74-19.21-35.7
			c-16.65-12.75-59.06-15.14-77.58,10.38c-0.67,0.92-1.55,1.69-2.7,2.94c-9.79-6.69-19.49-13.32-30.32-20.71
			c5.44-5.85,10.15-11.82,15.75-16.81c33.08-29.49,92.19-29.26,123.62,0.33c15.35,14.45,22.59,33,26.31,53.23
			c0.84,4.58,1.63,9.21,1.91,13.84c0.19,3.15,1.5,4.53,4.26,5.8c30,13.89,51.23,35.86,59.95,68.19c9.13,33.83,2.21,65.2-18.12,93.31
			c-23.99,33.16-57.37,51.48-97.24,58.38c-37.09,6.41-73.77,4.46-109.43-8.01c-47.29-16.54-78.14-49.97-96.03-96
			c-14.3-36.78-18.39-75.17-16.73-114.32c1.33-31.32,6.46-61.89,18.7-90.97c17.39-41.31,45.63-72.03,87.81-88.75
			c26.88-10.65,55-14.33,83.77-13.18c23.76,0.95,47.07,4.56,69.23,13.62c45.94,18.79,75.93,52.73,93.08,98.7
			c1.8,4.83,3.46,9.73,4.72,14.72c0.33,1.3-0.78,4.13-1.77,4.41c-10.06,2.92-20.22,5.47-30.37,8.09c-0.59,0.15-1.28-0.05-1.35-0.05
			c-4.24-10.52-7.76-20.94-12.53-30.76c-17.45-35.9-46.62-57.4-84.86-67.04c-30.85-7.78-61.82-7.29-92.38,1.28
			c-43.92,12.32-72.07,41.53-86.32,84.21c-11.46,34.31-13.48,69.83-10.61,105.66c2.04,25.42,7.75,49.99,18.77,73.12
			c18.57,38.96,50.06,60.88,91.92,68.41c27.86,5.01,55.87,5.01,83.17-3c28.48-8.35,52.49-23.77,65.74-51.36
			c12.55-26.13,11.59-51.97-7.12-75.56C375.13,303.78,369.32,299.13,362.67,295.65z M326.29,281.77c-0.73-0.26-1.49-0.74-2.28-0.8
			c-14.42-1.02-28.84-2.67-43.27-2.78c-13.35-0.1-26.53,2.04-38.25,9.51c-18.92,12.06-19.15,37.53,0.08,49.14
			c14.92,9.01,31.28,9.84,47.76,5.09C312.63,335.52,329.22,307.44,326.29,281.77z"/>
		<path d="M326.29,281.77c2.93,25.68-13.66,53.75-35.95,60.17c-16.48,4.75-32.85,3.92-47.76-5.09c-19.23-11.62-19-37.08-0.08-49.14
			c11.72-7.47,24.89-9.61,38.25-9.51c14.43,0.11,28.85,1.75,43.27,2.78C324.81,281.02,325.57,281.5,326.29,281.77z"/>
	</g>
</g>
</svg>
