<?xml version="1.0" encoding="utf-8"?>
<!-- Generator: Adobe Illustrator 26.0.3, SVG Export Plug-In . SVG Version: 6.00 Build 0)  -->
<svg version="1.1" id="Layer_1" xmlns="http://www.w3.org/2000/svg" xmlns:xlink="http://www.w3.org/1999/xlink" x="0px" y="0px"
	 viewBox="0 0 376.8 301" style="enable-background:new 0 0 376.8 301;" xml:space="preserve">
<g>
	<path d="M376.8,97.2v158.4c-0.4,1.4-0.9,2.7-1.1,4.1c-4.7,26.7-21.4,41.1-48.5,41.2c-93,0.1-186.1,0.1-279.1-0.1
		c-6.2,0-12.7-1.2-18.6-3.2C13.2,291.8,4.5,279,0,262.9v-173c0.5-1.3,1.2-2.6,1.6-4c6-19.9,19.2-31.6,39.9-33.3
		c12.4-1.1,24.9-0.2,37.3-0.8c2.8-0.1,6.4-2.1,8-4.3c5.8-7.8,11-16.1,16.3-24.3c9.8-15,23.5-23.1,41.6-23.2c28.8-0.1,57.7,0,86.5,0
		c17.8,0,31.3,7.9,41,22.8c5.3,8.2,10.5,16.5,16.4,24.3c1.8,2.4,5.6,4.5,8.6,4.7c10.5,0.6,21,0,31.5,0.3
		c20.4,0.4,35.8,8.9,43.8,28.3C374.7,85.6,375.4,91.5,376.8,97.2z M188.2,263.5C244,263.4,289,218.5,289,163
		c0-56.2-45.7-101.8-101.6-101.4c-56,0.4-101.2,45.7-101,101.3C86.7,218.6,132.3,263.7,188.2,263.5z M315.6,115.7
		c3.8-0.2,7.3-0.1,10.6-0.6c6.5-1.1,10.6-5,11.1-11.6c0.6-6.7-3-12.2-9.1-13.2c-8-1.3-16.5-1.2-24.5-0.1c-6.4,0.9-9.4,6.6-9,13.2
		c0.4,6.4,4.2,10.3,10.3,11.5C308.7,115.6,312.4,115.5,315.6,115.7z"/>
	<path d="M244.1,162.4c0.2,30.6-24.8,55.9-55.7,56.4c-30.5,0.5-56.3-24.7-56.6-55.3c-0.3-30.8,25.2-56.7,56-56.8
		C218.6,106.5,243.9,131.7,244.1,162.4z"/>
</g>
</svg>
